<?xml version="1.0" encoding="UTF-8"?>
<svg version="1.1" xmlns="http://www.w3.org/2000/svg" width="512" height="512">
<path d="M0 0 C1.01790619 0.00215515 2.03581238 0.0043103 3.08456421 0.00653076 C17.69363523 0.05620146 32.02575853 0.30709809 46.375 3.3125 C47.34985352 3.51117676 48.32470703 3.70985352 49.32910156 3.91455078 C97.7109774 14.03517194 141.69928269 35.9516877 177.375 70.3125 C178.3640332 71.26068604 178.3640332 71.26068604 179.37304688 72.22802734 C188.86130305 81.37247479 197.6012044 90.66984009 205.375 101.3125 C206.23306152 102.46355017 207.09113451 103.61459177 207.94921875 104.765625 C213.98736829 112.95680614 219.34595521 121.47054105 224.375 130.3125 C224.73948242 130.94430176 225.10396484 131.57610352 225.47949219 132.22705078 C247.08534998 169.97532572 256.85198095 212.74189997 256.6875 255.9375 C256.68534485 256.95540619 256.6831897 257.97331238 256.68096924 259.02206421 C256.63129052 273.63349291 256.37202593 287.95989484 253.375 302.3125 C253.18164062 303.27140137 252.98828125 304.23030273 252.7890625 305.21826172 C243.77808948 348.77825091 225.29634138 388.46727433 196.375 422.3125 C195.73820312 423.06144531 195.10140625 423.81039063 194.4453125 424.58203125 C182.62797532 438.07770621 169.88948412 450.74808025 155.375 461.3125 C154.22505169 462.16899066 153.07531411 463.02576433 151.92578125 463.8828125 C143.73565742 469.92284209 135.23120382 475.30617614 126.375 480.3125 C125.66778809 480.7146875 124.96057617 481.116875 124.23193359 481.53125 C101.09654164 494.5566741 75.92537591 503.30551461 49.9375 508.625 C49.21860596 508.77235596 48.49971191 508.91971191 47.7590332 509.0715332 C33.08339502 511.86090125 18.55831162 512.66142619 3.64770508 512.62817383 C0.70811513 512.6250221 -2.2304558 512.64854926 -5.16992188 512.67382812 C-18.54306192 512.71848737 -31.43916711 511.51301542 -44.625 509.3125 C-46.33055054 509.03031616 -46.33055054 509.03031616 -48.07055664 508.74243164 C-109.14015457 497.77271075 -168.16311252 461.77635001 -204.625 411.3125 C-205.47834392 410.16475242 -206.33252439 409.01762638 -207.1875 407.87109375 C-213.23247076 399.67998631 -218.61688169 391.17187821 -223.625 382.3125 C-224.0271875 381.60528809 -224.429375 380.89807617 -224.84375 380.16943359 C-237.8691741 357.03404164 -246.61801461 331.86287591 -251.9375 305.875 C-252.08485596 305.15610596 -252.23221191 304.43721191 -252.3840332 303.6965332 C-255.35789088 288.05024391 -255.99800362 272.57681954 -255.9375 256.6875 C-255.93534485 255.66959381 -255.9331897 254.65168762 -255.93096924 253.60293579 C-255.88129854 238.99386477 -255.63040191 224.66174147 -252.625 210.3125 C-252.42632324 209.33764648 -252.22764648 208.36279297 -252.02294922 207.35839844 C-241.90232806 158.9765226 -219.9858123 114.98821731 -185.625 79.3125 C-184.99287598 78.65314453 -184.36075195 77.99378906 -183.70947266 77.31445312 C-174.56502521 67.82619695 -165.26765991 59.0862956 -154.625 51.3125 C-153.47394983 50.45443848 -152.32290823 49.59636549 -151.171875 48.73828125 C-142.98224019 42.70072604 -134.47961724 37.31792698 -125.625 32.3125 C-124.91778809 31.9103125 -124.21057617 31.508125 -123.48193359 31.09375 C-100.34654164 18.0683259 -75.17537591 9.31948539 -49.1875 4 C-48.46860596 3.85264404 -47.74971191 3.70528809 -47.0090332 3.5534668 C-31.36274391 0.57960912 -15.88931954 -0.06050362 0 0 Z " fill="#3D3B3A" transform="translate(255.625,-0.3125)"/>
<path d="M0 0 C6.06009189 0.82513789 11.91411358 2.83922783 17.66796875 4.84375 C18.48420715 5.12459946 19.30044556 5.40544891 20.14141846 5.69480896 C22.8260484 6.62257112 25.50714889 7.5599513 28.1875 8.5 C29.12095245 8.82646515 30.05440491 9.1529303 31.0161438 9.48928833 C65.31752866 21.51816685 99.01419231 34.92869808 132.04394531 50.10339355 C133.9282703 50.9671209 135.81505886 51.82514988 137.703125 52.68066406 C164.98707758 65.0530952 191.86783394 78.34360484 218 93 C219.88011667 94.04443586 221.76032764 95.08870198 223.640625 96.1328125 C251.56596321 111.70823772 278.84156026 128.60322705 305 147 C306.36052986 147.94942975 307.72121132 148.8986423 309.08203125 149.84765625 C323.10520955 159.65688493 337.00784156 169.66842015 350.3737793 180.36157227 C354.15876005 183.38370719 358.04246176 186.21083046 362 189 C351.7814363 209.92631397 340.26164316 229.30779886 325 247 C324.36578125 247.74507812 323.7315625 248.49015625 323.078125 249.2578125 C311.26698485 262.76279833 298.51639772 275.43418743 284 286 C282.85005169 286.85649066 281.70031411 287.71326433 280.55078125 288.5703125 C263.50077814 301.14430105 244.72308916 311.58181568 225.1875 319.75 C224.35774658 320.109729 223.52799316 320.46945801 222.6730957 320.84008789 C219.02204903 322.30777195 216.83188371 323.15755373 212.90625 322.4140625 C211.9471875 321.94742187 210.988125 321.48078125 210 321 C208.79988281 320.49726563 207.59976563 319.99453125 206.36328125 319.4765625 C183.83483208 309.34197194 164.76779545 294.97544781 147 278 C146.27296875 277.32582031 145.5459375 276.65164063 144.796875 275.95703125 C138.46677776 269.92285319 133.23155983 262.9812389 128 256 C126.90558594 254.54013672 126.90558594 254.54013672 125.7890625 253.05078125 C117.46143092 241.45710829 110.67139333 228.84215474 103.55322266 216.48925781 C96.75548967 204.74794316 89.39624503 193.41111737 81.875 182.125 C81.41150146 181.42875519 80.94800293 180.73251038 80.47045898 180.01516724 C74.15678536 170.54619413 67.67137028 161.22016113 61 152 C60.37770508 151.13681152 59.75541016 150.27362305 59.11425781 149.38427734 C51.59244618 138.98495055 43.8042473 128.86853867 35.62646484 118.97802734 C33.94200437 116.92946854 32.27547756 114.86743738 30.61328125 112.80078125 C24.61039984 105.3407383 18.55614006 97.98712137 12 91 C11.18402344 90.10474609 11.18402344 90.10474609 10.3515625 89.19140625 C1.08930405 79.40955769 -10.96575699 71.01712151 -23 65 C-13.48177496 13.48177496 -13.48177496 13.48177496 0 0 Z " fill="#F16535" transform="translate(127,175)"/>
<path d="M0 0 C0.63276855 0.08040527 1.26553711 0.16081055 1.91748047 0.24365234 C9.27657655 1.17668297 16.63760738 2.09336375 24 3 C24.85706543 3.10634766 25.71413086 3.21269531 26.59716797 3.32226562 C27.36818848 3.41701172 28.13920898 3.51175781 28.93359375 3.609375 C29.57868896 3.68897461 30.22378418 3.76857422 30.88842773 3.85058594 C50.7374039 6.09756441 70.57851746 6.16021909 90.52783203 6.13037109 C94.31765351 6.12474553 98.10740363 6.1280202 101.89722252 6.13380718 C117.51602402 6.15404259 133.12195935 6.02566943 148.734375 5.55859375 C150.03456573 5.52037506 151.33475647 5.48215637 152.67434692 5.44277954 C161.84186289 5.14150521 170.97659027 4.57747307 180.125 3.9375 C220.54514592 1.26040722 268.19078755 -0.5821501 307 13 C307.33 12.34 307.66 11.68 308 11 C331.99988263 53.11476037 345.49758354 97.01879691 345.3125 145.625 C345.31034485 146.64290619 345.3081897 147.66081238 345.30596924 148.70956421 C345.25631894 163.31263423 345.0265612 177.65929136 342 192 C341.79068848 193.00144043 341.58137695 194.00288086 341.36572266 195.03466797 C338.37812011 208.94086894 334.52998298 222.52249744 330 236 C326.70796944 235.39318882 324.76158421 234.27910665 322.1640625 232.19140625 C321.43695068 231.61438965 320.70983887 231.03737305 319.96069336 230.44287109 C319.18991455 229.82234863 318.41913574 229.20182617 317.625 228.5625 C310.47705493 222.90577034 303.23741228 217.47069114 295.77050781 212.24511719 C293.94054285 210.9581865 292.12182315 209.65653615 290.3046875 208.3515625 C254.69392551 182.85885643 217.32998279 160.14282852 179 139 C178.02095703 138.45827148 177.04191406 137.91654297 176.03320312 137.35839844 C165.28428381 131.41669454 154.50811574 125.56960598 143.46191406 120.19775391 C141.6263923 119.30474818 139.79269822 118.40798388 137.95996094 117.50927734 C83.21565595 90.67585318 26.79105743 68.34636257 -31 49 C-29.88922149 45.45762748 -28.75171909 42.2476005 -26.8203125 39.07421875 C-26.39194092 38.3682959 -25.96356934 37.66237305 -25.5222168 36.93505859 C-25.06113525 36.19336426 -24.60005371 35.45166992 -24.125 34.6875 C-23.64393799 33.90713379 -23.16287598 33.12676758 -22.66723633 32.32275391 C-15.69172047 21.14169335 -7.93813605 10.51101886 0 0 Z " fill="#F16535" transform="translate(167,110)"/>
<path d="M0 0 C4.18563716 0.87758803 7.14923965 2.95605926 10.5625 5.4375 C11.17875244 5.88270996 11.79500488 6.32791992 12.42993164 6.78662109 C32.11983201 21.25588793 46.77455218 41.53430607 61.38232422 60.87060547 C63.01433807 63.01887363 64.66256494 65.15365722 66.31640625 67.28515625 C73.56189056 76.6370597 80.41146718 86.17587174 87 96 C87.54269531 96.80453613 88.08539063 97.60907227 88.64453125 98.43798828 C100.30909302 115.73405829 111.45486697 133.23219908 121.91870117 151.28149414 C138.86452376 180.47577707 158.60604971 206.83447309 186 227 C186.5760498 227.43151367 187.15209961 227.86302734 187.74560547 228.30761719 C195.25189999 233.92320488 202.93122493 238.87139045 211.13671875 243.40625 C214 245 214 245 217 247 C214.02256381 247.6342832 211.04339828 248.25735612 208.0625 248.875 C207.25103516 249.04902344 206.43957031 249.22304688 205.60351562 249.40234375 C190.51443503 252.50048197 175.64205121 253.34994923 160.27270508 253.31567383 C157.33311513 253.3125221 154.3945442 253.33604926 151.45507812 253.36132812 C138.08193808 253.40598737 125.18583289 252.20051542 112 250 C110.86296631 249.81187744 109.72593262 249.62375488 108.55444336 249.42993164 C77.46841159 243.84605515 47.72845998 231.7582796 20.93408203 215.16357422 C19.24376786 214.14665458 17.49810427 213.22290869 15.74609375 212.31640625 C11.66326451 210.02835784 9.46279512 208.28140661 7.84033203 203.7890625 C7.54497559 202.51804687 7.24961914 201.24703125 6.9453125 199.9375 C6.70025215 198.89007378 6.70025215 198.89007378 6.45024109 197.82148743 C4.52675222 189.34598118 3.16710042 180.76838953 1.8125 172.1875 C1.42388621 169.75763858 1.0332943 167.32812011 0.64006042 164.89900208 C0.39884508 163.4059066 0.16050515 161.91234282 -0.07450867 160.41825867 C-0.54119047 157.50470516 -1.06472749 154.80581754 -2 152 C-2.27343146 150.04088508 -2.50744734 148.07616102 -2.71875 146.109375 C-2.84636719 144.9234375 -2.97398438 143.7375 -3.10546875 142.515625 C-3.30076172 140.65164063 -3.30076172 140.65164063 -3.5 138.75 C-3.63019531 137.55375 -3.76039062 136.3575 -3.89453125 135.125 C-4.28823 131.41866427 -4.65254935 127.71094894 -5 124 C-5.10223877 122.91581787 -5.20447754 121.83163574 -5.30981445 120.71459961 C-6.26857001 108.77357859 -6.18608049 96.80572052 -6.18530273 84.83374023 C-6.18747703 81.10193253 -6.20565396 77.37042709 -6.22460938 73.63867188 C-6.27398337 53.07031829 -4.99421287 32.83264688 -1.875 12.5 C-1.69324219 11.2728125 -1.51148437 10.045625 -1.32421875 8.78125 C-0.88956859 5.85308048 -0.44831235 2.92610276 0 0 Z " fill="#F16535" transform="translate(99,259)"/>
<path d="M0 0 C6.06009189 0.82513789 11.91411358 2.83922783 17.66796875 4.84375 C18.48420715 5.12459946 19.30044556 5.40544891 20.14141846 5.69480896 C22.8260484 6.62257112 25.50714889 7.5599513 28.1875 8.5 C29.12095245 8.82646515 30.05440491 9.1529303 31.0161438 9.48928833 C65.28726418 21.50755364 98.96553206 34.89503779 131.96307373 50.0645752 C134.00925713 51.00425118 136.05731462 51.93972194 138.10595703 52.87402344 C141.97017646 54.63717324 145.83006539 56.4095602 149.6875 58.1875 C151.37093506 58.96250854 151.37093506 58.96250854 153.08837891 59.75317383 C159.20526205 62.60078576 165.16029943 65.61833903 171 69 C169.091993 75.5231256 166.51039132 81.21548927 163.0625 87.0625 C162.34114868 88.29359497 162.34114868 88.29359497 161.60522461 89.54956055 C149.20285072 110.29764427 132.9777395 129.06879604 114 144 C112.64455078 145.08087891 112.64455078 145.08087891 111.26171875 146.18359375 C102.65502112 152.86181971 93.45697599 158.60434178 84 164 C83.27876953 164.41169434 82.55753906 164.82338867 81.81445312 165.24755859 C80.7693457 165.81144287 80.7693457 165.81144287 79.703125 166.38671875 C79.08598633 166.72276123 78.46884766 167.05880371 77.83300781 167.4050293 C75.45678584 168.17632031 74.29968008 167.94470834 72 167 C70.60302734 165.63989258 70.60302734 165.63989258 69.3359375 163.89453125 C68.85898438 163.24798584 68.38203125 162.60144043 67.890625 161.93530273 C67.39046875 161.23477783 66.8903125 160.53425293 66.375 159.8125 C65.84648437 159.09070557 65.31796875 158.36891113 64.7734375 157.62524414 C61.87612469 153.65493312 59.03543359 149.64478862 56.19799805 145.6315918 C55.80265869 145.0725415 55.40731934 144.51349121 55 143.9375 C54.60014893 143.37135986 54.20029785 142.80521973 53.78833008 142.22192383 C49.27771898 135.89166577 44.37678251 129.88481374 39.48486328 123.84814453 C37.58108981 121.47860077 35.71647213 119.0800091 33.85302734 116.67871094 C17.89543927 96.14289028 0.62970138 76.81485069 -23 65 C-13.48177496 13.48177496 -13.48177496 13.48177496 0 0 Z " fill="#F4845C" transform="translate(127,175)"/>
<path d="M0 0 C20.71749074 2.16640742 41.38459092 11.11804501 60 20 C61.14106201 20.54261475 61.14106201 20.54261475 62.30517578 21.09619141 C85.05990554 32.10191449 105.83598349 47.50374015 124 65 C124.66467285 65.63744141 125.3293457 66.27488281 126.01416016 66.93164062 C135.16237764 75.751291 143.64683315 84.61161932 151 95 C147.60270745 96.13243085 145.99706284 95.85802647 142.49609375 95.29296875 C141.3776709 95.11926758 140.25924805 94.94556641 139.10693359 94.76660156 C137.89602051 94.57549805 136.68510742 94.38439453 135.4375 94.1875 C101.76260269 89.20339216 67.95453485 88.58151855 34.03938484 91.29192352 C8.96531367 93.25236638 -16.02970286 93.3957845 -41.16650391 93.26428223 C-45.59690949 93.24493764 -50.02727472 93.24110566 -54.45771694 93.2375679 C-59.82469435 93.23240277 -65.19163593 93.21795509 -70.55859375 93.203125 C-71.54932829 93.20124428 -72.54006283 93.19936356 -73.56081963 93.19742584 C-88.3103052 93.16107691 -102.76574902 92.6629617 -117.375 90.4375 C-118.3134375 90.29892578 -119.251875 90.16035156 -120.21875 90.01757812 C-122.4799018 89.68301995 -124.7402457 89.34384753 -127 89 C-122.88567619 83.10892591 -118.34616608 78.16772796 -113.0625 73.3125 C-111.94597046 72.27657715 -111.94597046 72.27657715 -110.80688477 71.21972656 C-79.51159086 42.33380805 -43.90927114 17.6982444 -4.0078125 2.20703125 C-1.16320555 1.29416903 -1.16320555 1.29416903 0 0 Z " fill="#F16535" transform="translate(309,5)"/>
<path d="M0 0 C0.63276855 0.08040527 1.26553711 0.16081055 1.91748047 0.24365234 C9.27657655 1.17668297 16.63760738 2.09336375 24 3 C24.85706543 3.10634766 25.71413086 3.21269531 26.59716797 3.32226562 C27.36818848 3.41701172 28.13920898 3.51175781 28.93359375 3.609375 C29.57868896 3.68897461 30.22378418 3.76857422 30.88842773 3.85058594 C37.51926743 4.60122183 44.12888499 5.19061631 50.79223633 5.53491211 C51.6103243 5.57729728 52.42841227 5.61968245 53.27129078 5.66335201 C62.5153246 6.11306411 71.75843351 6.22681153 81.01171875 6.31640625 C82.8454476 6.33705583 84.67917256 6.35805385 86.51289368 6.37937927 C91.2686542 6.43377601 96.02445152 6.48353763 100.78027344 6.53222656 C105.66149044 6.58305549 110.54265601 6.63841633 115.42382812 6.69335938 C124.9491745 6.79992813 134.47456613 6.90158454 144 7 C144.48667955 8.91195286 144.97100673 10.8245046 145.4543457 12.73730469 C145.72430862 13.80229187 145.99427155 14.86727905 146.27241516 15.96453857 C152.28747469 41.05918072 150.31888189 70.04006239 145 95 C144.73582275 96.24595947 144.73582275 96.24595947 144.46630859 97.51708984 C142.96215109 104.41007981 141.23661839 110.68911696 138 117 C129.13821643 113.09518128 120.29065617 109.16762908 111.51953125 105.0625 C65.15369239 83.38916602 17.51438457 65.24086694 -31 49 C-29.88922149 45.45762748 -28.75171909 42.2476005 -26.8203125 39.07421875 C-26.39194092 38.3682959 -25.96356934 37.66237305 -25.5222168 36.93505859 C-25.06113525 36.19336426 -24.60005371 35.45166992 -24.125 34.6875 C-23.64393799 33.90713379 -23.16287598 33.12676758 -22.66723633 32.32275391 C-15.69172047 21.14169335 -7.93813605 10.51101886 0 0 Z " fill="#F4845C" transform="translate(167,110)"/>
<path d="M0 0 C0.88051025 0.00080566 1.76102051 0.00161133 2.66821289 0.00244141 C11.26045496 0.08288277 19.3438639 0.79477121 27.3125 4.1875 C26.79221958 10.12688097 26.07836368 16.01097848 25.19140625 21.90625 C20.39212419 53.80727874 18.86594674 84.941989 19.3125 117.1875 C19.32651855 118.30560059 19.34053711 119.42370117 19.35498047 120.57568359 C19.74774927 143.62756772 22.76860955 167.19873936 27.82519531 189.67480469 C28.03370117 190.61485352 28.24220703 191.55490234 28.45703125 192.5234375 C28.64628174 193.33345215 28.83553223 194.1434668 29.03051758 194.97802734 C29.33254147 197.34453491 29.04257336 198.93383728 28.3125 201.1875 C4.46713067 177.95743397 4.46713067 177.95743397 -4.6875 165.1875 C-5.53769038 164.04194913 -6.38928501 162.89743929 -7.2421875 161.75390625 C-13.29208941 153.56180781 -18.67758631 145.05005423 -23.6875 136.1875 C-24.0896875 135.48028809 -24.491875 134.77307617 -24.90625 134.04443359 C-44.67764437 98.92703898 -56.66766792 57.64665358 -55.6875 17.1875 C-38.04024759 6.6670226 -20.8635347 -0.01983037 0 0 Z " fill="#F4845C" transform="translate(55.6875,245.8125)"/>
<path d="M0 0 C6.06006306 0.82513396 11.91416391 2.83914667 17.66796875 4.84375 C18.48556671 5.1251886 19.30316467 5.4066272 20.14553833 5.69659424 C22.82866048 6.62412509 25.50835837 7.56103754 28.1875 8.5 C29.11098236 8.82214478 30.03446472 9.14428955 30.9859314 9.47619629 C46.55166064 14.91871471 61.96132133 20.73071196 77.3125 26.75 C78.31171478 27.14131104 79.31092957 27.53262207 80.34042358 27.93579102 C83.18321139 29.05156989 86.02381544 30.17267195 88.86328125 31.296875 C89.70206818 31.62753967 90.5408551 31.95820435 91.40505981 32.29888916 C95.713079 34.01633619 99.88360447 35.85015668 104 38 C103.53666987 43.72911381 101.98692219 47.48230596 98.9375 52.3125 C98.33023071 53.29524902 98.33023071 53.29524902 97.71069336 54.29785156 C94.20094416 59.87889444 90.32588514 65.02238075 86 70 C84.89591797 71.32064453 84.89591797 71.32064453 83.76953125 72.66796875 C72.04151489 86.23267283 57.22855022 96.21226966 41.125 103.9375 C40.21536499 104.37980957 40.21536499 104.37980957 39.28735352 104.83105469 C35.18112544 106.72615021 31.54546678 108.11428602 27 108 C24.63386791 105.90892685 23.03974146 104.17139443 21.1875 101.6875 C20.1410879 100.38165094 19.09157624 99.07827991 18.0390625 97.77734375 C17.26804199 96.80837158 17.26804199 96.80837158 16.48144531 95.81982422 C6.1001215 83.06728834 -8.2923355 72.35383225 -23 65 C-13.48177496 13.48177496 -13.48177496 13.48177496 0 0 Z " fill="#F39472" transform="translate(127,175)"/>
<path d="M0 0 C8.40190431 0.5239713 16.39003154 2.29673119 24.5625 4.25 C25.22740448 4.40717499 25.89230896 4.56434998 26.57736206 4.72628784 C36.10097684 6.97855686 45.51411583 9.45115409 54.85986328 12.35107422 C60.08526435 13.93550452 65.35273235 15.38176394 70.60961914 16.85766602 C76.12817297 18.42115807 81.57498474 20.13760799 87 22 C84.74206254 29.067051 82.06345542 35.88792665 79.25 42.75 C75.92979553 50.94766759 72.78626199 59.16733193 70 67.5625 C69.72188477 68.39942383 69.44376953 69.23634766 69.15722656 70.09863281 C67.5553394 75.02428585 66.20046918 79.96149235 65 85 C63.783125 84.71125 62.56625 84.4225 61.3125 84.125 C59.54346258 83.74161728 57.772427 83.36739383 56 83 C55.07960938 82.80921875 54.15921875 82.6184375 53.2109375 82.421875 C26.39275521 77.57104099 1.13883539 83.15446695 -23 95 C-23.58895666 62.80370258 -13.47577422 28.9933324 0 0 Z " fill="#F39472" transform="translate(23,147)"/>
<path d="M0 0 C9.56253177 5.81720683 19.07199678 13.07199678 27 21 C14.62186626 46.05938979 -0.59076218 68.84801769 -20 89 C-20.63212402 89.65935547 -21.26424805 90.31871094 -21.91552734 90.99804688 C-31.05997479 100.48630305 -40.35734009 109.2262044 -51 117 C-52.15105017 117.85806152 -53.30209177 118.71613451 -54.453125 119.57421875 C-71.50418767 132.14458784 -90.27788056 142.58222114 -109.8125 150.75 C-110.64225342 151.109729 -111.47200684 151.46945801 -112.3269043 151.84008789 C-115.94895079 153.29611417 -118.16292648 154.15394456 -122.05859375 153.4375 C-123.02925781 152.963125 -123.99992187 152.48875 -125 152 C-126.31744291 151.4212704 -127.63517321 150.84319478 -128.953125 150.265625 C-130.38776032 149.59876899 -131.81998637 148.92671002 -133.25 148.25 C-133.99564209 147.89873047 -134.74128418 147.54746094 -135.50952148 147.18554688 C-141.21991078 144.45694026 -146.68669568 141.44646767 -152 138 C-149.89446003 135.89446003 -148.74016065 135.40373926 -145.984375 134.44140625 C-144.74276611 133.99522949 -144.74276611 133.99522949 -143.47607422 133.54003906 C-142.57646973 133.21745117 -141.67686523 132.89486328 -140.75 132.5625 C-112.09043985 121.9170969 -85.50631111 105.81555105 -63.10546875 84.953125 C-61.2023595 83.18771753 -59.24651265 81.5324822 -57.25 79.875 C-36.19452724 61.40380056 -20.25048516 37.4501538 -7 13 C-6.47067871 12.02595215 -6.47067871 12.02595215 -5.93066406 11.03222656 C-3.93902281 7.36263219 -1.96253123 3.68526765 0 0 Z " fill="#CE562D" transform="translate(462,344)"/>
<path d="M0 0 C0.03440186 0.62342285 0.06880371 1.2468457 0.10424805 1.88916016 C1.20543067 20.41975897 2.89272606 35.67025741 17.12890625 48.9921875 C23.45066485 54.26220451 30.92382863 58.23039602 39 60 C37.49624689 64.52825089 34.93861839 67.95402916 32.0625 71.6875 C27.76368915 77.40346972 23.8356668 83.26094218 20.125 89.375 C19.68551025 90.09905029 19.24602051 90.82310059 18.79321289 91.5690918 C15.74489145 96.64846957 12.84875953 101.8064571 10 107 C4.06789027 106.43631537 -1.12073945 105.15936421 -6.75 103.25 C-14.29849917 100.77597215 -21.87263059 98.69413183 -29.59130859 96.82519531 C-35.05647303 95.49844147 -40.46884699 94.0485841 -45.875 92.5 C-56.14888369 89.57291458 -66.56760119 87.28419884 -77 85 C-75.39083003 80.45234573 -73.05327217 76.56191302 -70.5 72.5 C-70.05712646 71.79512451 -69.61425293 71.09024902 -69.15795898 70.36401367 C-65.19098324 64.14382377 -60.89365905 58.26988783 -56.24902344 52.54150391 C-55.04191622 51.05173163 -53.85263672 49.54756856 -52.6640625 48.04296875 C-39.92302612 32.38797294 -25.34393692 17.86253486 -9 6 C-7.3949244 4.77202048 -5.79060431 3.5430519 -4.1875 2.3125 C-1 0 -1 0 0 0 Z " fill="#F39472" transform="translate(110,45)"/>
<path d="M0 0 C0.63276855 0.08040527 1.26553711 0.16081055 1.91748047 0.24365234 C9.27657655 1.17668297 16.63760738 2.09336375 24 3 C24.85706543 3.10634766 25.71413086 3.21269531 26.59716797 3.32226562 C35.90671621 4.46626027 45.1718421 5.27638374 54.54614258 5.65869141 C59.0964474 5.85152188 63.50173399 6.27908584 68 7 C77.7604292 32.46198923 78.48353929 59.60273289 72 86 C67.9529905 85.43628165 64.49492521 84.55034578 60.73828125 82.953125 C59.72056641 82.52717041 58.70285156 82.10121582 57.65429688 81.66235352 C56.00010742 80.96323853 56.00010742 80.96323853 54.3125 80.25 C26.31009694 68.64818246 -2.28411816 58.67396773 -31 49 C-29.88922149 45.45762748 -28.75171909 42.2476005 -26.8203125 39.07421875 C-26.39194092 38.3682959 -25.96356934 37.66237305 -25.5222168 36.93505859 C-25.06113525 36.19336426 -24.60005371 35.45166992 -24.125 34.6875 C-23.64393799 33.90713379 -23.16287598 33.12676758 -22.66723633 32.32275391 C-15.69172047 21.14169335 -7.93813605 10.51101886 0 0 Z " fill="#F29472" transform="translate(167,110)"/>
<path d="M0 0 C1.00828354 0.00141495 2.01656708 0.0028299 3.05540466 0.00428772 C6.24399917 0.0098402 9.43252083 0.02238364 12.62109375 0.03515625 C14.79622294 0.0401774 16.97135324 0.04473923 19.14648438 0.04882812 C24.45054526 0.05979402 29.7545643 0.07648411 35.05859375 0.09765625 C33.10915765 1.0724848 31.15967345 2.04720982 29.20947266 3.02050781 C9.61099698 12.87693481 -8.69545215 24.5454213 -25.94140625 38.09765625 C-26.84761719 38.80277344 -27.75382812 39.50789063 -28.6875 40.234375 C-31.12986003 42.1609086 -33.54081204 44.11935357 -35.94140625 46.09765625 C-36.90949219 46.89171875 -37.87757813 47.68578125 -38.875 48.50390625 C-52.93737658 60.15633813 -66.683377 72.66746731 -78.59375 86.53125 C-80.78668592 89.08014074 -80.78668592 89.08014074 -84.25390625 89.47265625 C-93.10324351 89.32966875 -100.99750891 84.73143593 -107.3203125 78.84375 C-114.58520658 71.01867132 -115.45455602 61.92728852 -115.37890625 51.59765625 C-115.39888672 50.62957031 -115.41886719 49.66148438 -115.43945312 48.6640625 C-115.43496835 41.98174836 -114.82946002 35.71703489 -110.94140625 30.09765625 C-107.80404904 27.58615158 -104.44502856 26.0837606 -100.75390625 24.53515625 C-99.73868896 24.08245361 -98.72347168 23.62975098 -97.67749023 23.16333008 C-72.71534314 12.25397558 -46.97787305 4.57773384 -19.94140625 1.09765625 C-18.95466919 0.96482742 -18.95466919 0.96482742 -17.94799805 0.82931519 C-11.94811466 0.08249166 -6.04101773 -0.03248728 0 0 Z " fill="#F4845C" transform="translate(243.94140625,-0.09765625)"/>
<path d="M0 0 C2.60466582 0.47657292 5.20871714 0.95614719 7.8125 1.4375 C8.91948242 1.63956055 8.91948242 1.63956055 10.04882812 1.84570312 C13.11315076 2.41419737 16.03928953 3.01309651 19 4 C19.33 3.34 19.66 2.68 20 2 C43.99988263 44.11476037 57.49758354 88.01879691 57.3125 136.625 C57.31034485 137.64290619 57.3081897 138.66081238 57.30596924 139.70956421 C57.25631894 154.31263423 57.0265612 168.65929136 54 183 C53.79068848 184.00144043 53.58137695 185.00288086 53.36572266 186.03466797 C50.37812011 199.94086894 46.52998298 213.52249744 42 227 C38.58219571 226.3895068 36.57938052 225.13716047 33.8828125 222.98046875 C33.11066406 222.37009766 32.33851563 221.75972656 31.54296875 221.13085938 C30.74503906 220.48955078 29.94710938 219.84824219 29.125 219.1875 C27.54581633 217.92904776 25.96511867 216.67249269 24.3828125 215.41796875 C23.33697998 214.57915161 23.33697998 214.57915161 22.27001953 213.72338867 C19.59140415 211.68979586 16.81231515 209.84289002 14 208 C14.24645264 207.19820312 14.49290527 206.39640625 14.74682617 205.5703125 C28.0587041 161.72965407 34.62673921 114.27198929 24 69 C23.61986394 67.19975152 23.24228397 65.39896151 22.8671875 63.59765625 C18.76135626 44.5626288 12.2503706 26.70947476 3.97851562 9.11425781 C2.58504361 6.10341259 1.28811613 3.05723765 0 0 Z " fill="#CE572D" transform="translate(455,119)"/>
<path d="M0 0 C4.18563716 0.87758803 7.14923965 2.95605926 10.5625 5.4375 C11.17875244 5.88270996 11.79500488 6.32791992 12.42993164 6.78662109 C32.11117928 21.2495294 46.76171853 41.51735593 61.36474609 60.84423828 C63.05244814 63.06914259 64.75276905 65.28385331 66.45703125 67.49609375 C75.85323383 79.69345855 75.85323383 79.69345855 80.375 85.875 C80.91898437 86.61492187 81.46296875 87.35484375 82.0234375 88.1171875 C82.34570312 88.73851562 82.66796875 89.35984375 83 90 C82.505 91.485 82.505 91.485 82 93 C79.89306641 93.93554688 79.89306641 93.93554688 77.1015625 94.71875 C76.06257813 95.01136719 75.02359375 95.30398438 73.953125 95.60546875 C72.30570313 96.04826172 72.30570313 96.04826172 70.625 96.5 C69.08199219 96.94279297 69.08199219 96.94279297 67.5078125 97.39453125 C51.2976704 101.86018933 35.50461693 103.47075236 18.73217773 103.28125 C15.88056699 103.24936338 13.02950787 103.24018951 10.17773438 103.234375 C8.356764 103.22522976 6.53579926 103.21486206 4.71484375 103.203125 C3.86607162 103.19887512 3.0172995 103.19462524 2.14280701 103.19024658 C-3.76516112 103.11741944 -3.76516112 103.11741944 -6 102 C-6.05177558 95.31871961 -6.08617024 88.63749292 -6.10986328 81.95605469 C-6.11976632 79.69496733 -6.1332923 77.43389221 -6.15087891 75.17285156 C-6.31048782 54.08569759 -5.0735188 33.34960405 -1.875 12.5 C-1.69324219 11.2728125 -1.51148437 10.045625 -1.32421875 8.78125 C-0.88956859 5.85308048 -0.44831235 2.92610276 0 0 Z " fill="#F4845C" transform="translate(99,259)"/>
<path d="M0 0 C14.84045569 15.67203295 26.25107328 35.29310184 35.125 54.8125 C35.50342041 55.64217285 35.88184082 56.4718457 36.27172852 57.32666016 C38.15593991 61.60397357 39.26691792 65.36083278 40 70 C28.7680194 70.02328008 17.53604464 70.04099436 6.30404472 70.05181217 C1.08729061 70.05700696 -4.12944686 70.06404201 -9.34619141 70.07543945 C-14.39069658 70.08639028 -19.43518585 70.0923024 -24.479702 70.09487724 C-26.3939832 70.09670969 -28.30826365 70.10028746 -30.22253799 70.10573006 C-44.76126951 70.14538182 -58.97303635 69.63138513 -73.375 67.4375 C-74.3134375 67.29892578 -75.251875 67.16035156 -76.21875 67.01757812 C-78.4799018 66.68301995 -80.7402457 66.34384753 -83 66 C-78.88567619 60.10892591 -74.34616608 55.16772796 -69.0625 50.3125 C-68.31814697 49.62188477 -67.57379395 48.93126953 -66.80688477 48.21972656 C-14.56514926 0 -14.56514926 0 0 0 Z " fill="#F4845C" transform="translate(265,28)"/>
<path d="M0 0 C3.97837199 1.43729607 7.57898571 3.35354484 11.27880859 5.37597656 C27.85485552 14.40157195 44.80588381 20.12821837 63 25 C63.91660792 28.73350057 64.13297296 32.34232752 64.23925781 36.17675781 C64.88689829 58.37787334 67.63843506 80.82165974 72.51269531 102.48730469 C72.72120117 103.42735352 72.92970703 104.36740234 73.14453125 105.3359375 C73.33378174 106.14595215 73.52303223 106.9559668 73.71801758 107.79052734 C74.02004147 110.15703491 73.73007336 111.74633728 73 114 C49.15463067 90.76993397 49.15463067 90.76993397 40 78 C39.14980962 76.85444913 38.29821499 75.70993929 37.4453125 74.56640625 C31.39541059 66.37430781 26.00991369 57.86255423 21 49 C20.5978125 48.29278809 20.195625 47.58557617 19.78125 46.85693359 C11.4722652 32.09874848 4.3521368 16.41118253 0 0 Z " fill="#F16535" transform="translate(11,333)"/>
<path d="M0 0 C4.39829398 1.3364591 8.46793646 3.08309989 12.62207031 5.02075195 C28.58040778 12.45977797 44.82693229 18.14149428 62 22 C63.09828125 22.26425781 64.1965625 22.52851563 65.328125 22.80078125 C68.87308338 23.61981784 72.4246847 24.32554904 76 25 C76.68481445 25.13825195 77.36962891 25.27650391 78.07519531 25.41894531 C107.20398994 31.11107413 141.96165611 30.63704023 170.87109375 23.8984375 C178.60865908 22.14935905 178.60865908 22.14935905 182.40234375 24.46875 C183.23894531 25.1390625 184.07554687 25.809375 184.9375 26.5 C190.38767104 30.66734167 196.04953696 34.01853479 202.03125 37.3359375 C205 39 205 39 208 41 C205.02256381 41.6342832 202.04339828 42.25735612 199.0625 42.875 C198.25103516 43.04902344 197.43957031 43.22304688 196.60351562 43.40234375 C181.51443503 46.50048197 166.64205121 47.34994923 151.27270508 47.31567383 C148.33311513 47.3125221 145.3945442 47.33604926 142.45507812 47.36132812 C129.08193808 47.40598737 116.18583289 46.20051542 103 44 C101.86296631 43.81187744 100.72593262 43.62375488 99.55444336 43.42993164 C65.19227008 37.25757317 27.35758235 23.36429611 0 1 C0 0.67 0 0.34 0 0 Z " fill="#CE572D" transform="translate(108,465)"/>
<path d="M0 0 C5.93264536 0.10957044 11.24173214 1.08380554 16.92871094 2.75146484 C17.82686523 3.01185547 18.72501953 3.27224609 19.65039062 3.54052734 C33.44375414 7.75956102 46.36936215 14.12055974 58.17871094 22.37646484 C57.08293865 25.66378172 56.40066493 26.2565024 53.80371094 28.37646484 C45.57825146 35.36146006 38.16208234 43.16331734 31.17871094 51.37646484 C30.17871094 52.37646484 30.17871094 52.37646484 26.86621094 52.75146484 C18.01687368 52.60847735 10.12260828 48.01024452 3.79980469 42.12255859 C-3.61987036 34.13076402 -4.30345334 24.96493674 -4.13378906 14.43896484 C-4.13701172 13.41222656 -4.14023438 12.38548828 -4.14355469 11.32763672 C-4.06791227 0.84084728 -4.06791227 0.84084728 0 0 Z " fill="#F39472" transform="translate(132.8212890625,36.62353515625)"/>
<path d="M0 0 C-0.65339669 7.00338833 -1.46921444 13.97080952 -2.4375 20.9375 C-2.55931641 21.86884766 -2.68113281 22.80019531 -2.80664062 23.75976562 C-2.93103516 24.65244141 -3.05542969 25.54511719 -3.18359375 26.46484375 C-3.29243896 27.265271 -3.40128418 28.06569824 -3.51342773 28.89038086 C-4 31 -4 31 -6 34 C-25.16246996 26.82426657 -40.6473965 17.56741705 -56 4 C-55.8125 2.125 -55.8125 2.125 -55 0 C-40.69579184 -7.61881987 -14.43180303 -6.14448859 0 0 Z " fill="#F29472" transform="translate(83,250)"/>
<path d="M0 0 C19.39102345 8.43695972 36.9010271 23.45610476 52 38 C52.66467285 38.63744141 53.3293457 39.27488281 54.01416016 39.93164062 C63.16237764 48.751291 71.64683315 57.61161932 79 68 C73.65422601 69.78192466 68.18221554 68.90819424 62.93945312 67.05419922 C57.0726186 63.86525266 53.84743076 56.71761642 50.44726562 51.22167969 C48.24991701 47.84855682 45.71575069 44.83301713 43.0625 41.8125 C42.57273682 41.25256348 42.08297363 40.69262695 41.57836914 40.11572266 C40.06308257 38.40042518 38.53420138 36.69839204 37 35 C36.17701416 34.08444336 36.17701416 34.08444336 35.33740234 33.15039062 C29.22819393 26.37992135 23.14282789 19.70184 16 14 C15.45102051 13.55994629 14.90204102 13.11989258 14.33642578 12.66650391 C7.49995307 6.81740657 7.49995307 6.81740657 0 2 C0 1.34 0 0.68 0 0 Z " fill="#CF572D" transform="translate(381,32)"/>
<path d="M0 0 C4.19453314 0.58744076 7.22626099 3.01217794 10.5625 5.4375 C11.17802734 5.88198486 11.79355469 6.32646973 12.42773438 6.78442383 C20.78437895 12.92336012 28.6498898 19.7620192 35 28 C35 28.66 35 29.32 35 30 C30.39184965 30.02478935 25.78373847 30.0429023 21.17553711 30.05493164 C19.60912398 30.05994856 18.0427155 30.06676362 16.47631836 30.07543945 C14.21987761 30.08762094 11.96349898 30.09325481 9.70703125 30.09765625 C8.66298882 30.10539818 8.66298882 30.10539818 7.59785461 30.11329651 C3.93529848 30.11371546 0.56131142 29.87148095 -3 29 C-2.55883637 19.20152364 -1.91433287 9.64600738 0 0 Z " fill="#F19372" transform="translate(99,259)"/>
<path d="M0 0 C8.45612525 3.45956944 15.0731227 16.19861937 19.91137695 23.78198242 C19.91137695 24.11198242 19.91137695 24.44198242 19.91137695 24.78198242 C5.2577947 25.1956857 -8.64102216 24.26377889 -23.08862305 21.78198242 C-19.02960389 16.01415225 -14.61098468 11.03359853 -9.46362305 6.21948242 C-8.8087793 5.57946289 -8.15393555 4.93944336 -7.47924805 4.2800293 C-6.84245117 3.68125977 -6.2056543 3.08249023 -5.54956055 2.46557617 C-4.98027832 1.92473389 -4.41099609 1.3838916 -3.82446289 0.82666016 C-2.08862305 -0.21801758 -2.08862305 -0.21801758 0 0 Z " fill="#F09371" transform="translate(205.088623046875,72.218017578125)"/>
<path d="M0 0 C15.18 0 30.36 0 46 0 C44.02 0.99 44.02 0.99 42 2 C40.55266671 2.7552546 39.10746754 3.5146085 37.6640625 4.27734375 C36.84679687 4.70853516 36.02953125 5.13972656 35.1875 5.58398438 C33.48688817 6.48224962 31.78636649 7.38068556 30.0859375 8.27929688 C25.74670977 10.56830773 21.39948989 12.82891623 17 15 C16.27554688 14.32453125 15.55109375 13.6490625 14.8046875 12.953125 C13.83789062 12.06109375 12.87109375 11.1690625 11.875 10.25 C10.92367187 9.36828125 9.97234375 8.4865625 8.9921875 7.578125 C6.87336589 5.75250847 4.94893454 4.24033089 2.6328125 2.734375 C1.76398438 2.16203125 0.89515625 1.5896875 0 1 C0 0.67 0 0.34 0 0 Z " fill="#F06535" transform="translate(233,0)"/>
<path d="M0 0 C2.88506268 3.43071584 5.15173661 6.85441224 7.25 10.8125 C8.1575 12.524375 9.065 14.23625 10 16 C6.04 17.98 2.08 19.96 -2 22 C-2.25515919 14.47280398 -1.28297723 7.41148455 0 0 Z " fill="#F2825A" transform="translate(2,220)"/>
<path d="M0 0 C3.3 1.65 6.6 3.3 10 5 C9.01 5.66 8.02 6.32 7 7 C5.82780457 6.21654285 4.66236332 5.42297164 3.5 4.625 C2.8503125 4.18414062 2.200625 3.74328125 1.53125 3.2890625 C1.0259375 2.86367188 0.520625 2.43828125 0 2 C0 1.34 0 0.68 0 0 Z " fill="#DD5D32" transform="translate(381,32)"/>
</svg>
